<mxfile host="app.diagrams.net" modified="2021-04-28T14:15:14.767Z" agent="5.0 (Windows NT 10.0; Win64; x64) AppleWebKit/537.36 (KHTML, like Gecko) Chrome/90.0.4430.85 Safari/537.36 Edg/90.0.818.49" etag="qtU5cUpzyYAAfk2dryKU" version="14.6.6" type="github">
  <diagram id="C5RBs43oDa-KdzZeNtuy" name="Page-1">
    <mxGraphModel dx="723" dy="362" grid="1" gridSize="10" guides="1" tooltips="1" connect="1" arrows="1" fold="1" page="1" pageScale="1" pageWidth="827" pageHeight="1169" math="0" shadow="0">
      <root>
        <mxCell id="WIyWlLk6GJQsqaUBKTNV-0" />
        <mxCell id="WIyWlLk6GJQsqaUBKTNV-1" parent="WIyWlLk6GJQsqaUBKTNV-0" />
        <mxCell id="IZOHKW2P9wZHOgx0dLO4-3" style="edgeStyle=orthogonalEdgeStyle;rounded=0;orthogonalLoop=1;jettySize=auto;html=1;" edge="1" parent="WIyWlLk6GJQsqaUBKTNV-1" source="IZOHKW2P9wZHOgx0dLO4-0" target="IZOHKW2P9wZHOgx0dLO4-1">
          <mxGeometry relative="1" as="geometry" />
        </mxCell>
        <mxCell id="IZOHKW2P9wZHOgx0dLO4-0" value="&lt;p&gt;&lt;font face=&quot;Times New Roman&quot;&gt;&lt;b&gt;MULAI&lt;/b&gt;&lt;/font&gt;&lt;/p&gt;" style="rounded=1;whiteSpace=wrap;html=1;arcSize=50;" vertex="1" parent="WIyWlLk6GJQsqaUBKTNV-1">
          <mxGeometry x="360" y="30" width="120" height="30" as="geometry" />
        </mxCell>
        <mxCell id="IZOHKW2P9wZHOgx0dLO4-4" style="edgeStyle=orthogonalEdgeStyle;rounded=0;orthogonalLoop=1;jettySize=auto;html=1;" edge="1" parent="WIyWlLk6GJQsqaUBKTNV-1" source="IZOHKW2P9wZHOgx0dLO4-1" target="IZOHKW2P9wZHOgx0dLO4-2">
          <mxGeometry relative="1" as="geometry" />
        </mxCell>
        <mxCell id="IZOHKW2P9wZHOgx0dLO4-1" value="&lt;font face=&quot;Times New Roman&quot;&gt;&lt;b&gt;Login&lt;/b&gt;&lt;/font&gt;" style="shape=parallelogram;perimeter=parallelogramPerimeter;whiteSpace=wrap;html=1;fixedSize=1;rounded=0;" vertex="1" parent="WIyWlLk6GJQsqaUBKTNV-1">
          <mxGeometry x="360" y="120" width="120" height="40" as="geometry" />
        </mxCell>
        <mxCell id="IZOHKW2P9wZHOgx0dLO4-6" style="edgeStyle=orthogonalEdgeStyle;rounded=0;orthogonalLoop=1;jettySize=auto;html=1;" edge="1" parent="WIyWlLk6GJQsqaUBKTNV-1" source="IZOHKW2P9wZHOgx0dLO4-2" target="IZOHKW2P9wZHOgx0dLO4-5">
          <mxGeometry relative="1" as="geometry" />
        </mxCell>
        <mxCell id="IZOHKW2P9wZHOgx0dLO4-2" value="&lt;font face=&quot;Times New Roman&quot;&gt;&lt;b&gt;Masukkan Kode Perangkat&lt;/b&gt;&lt;/font&gt;" style="shape=parallelogram;perimeter=parallelogramPerimeter;whiteSpace=wrap;html=1;fixedSize=1;rounded=0;" vertex="1" parent="WIyWlLk6GJQsqaUBKTNV-1">
          <mxGeometry x="360" y="200" width="120" height="60" as="geometry" />
        </mxCell>
        <mxCell id="IZOHKW2P9wZHOgx0dLO4-8" style="edgeStyle=orthogonalEdgeStyle;rounded=0;orthogonalLoop=1;jettySize=auto;html=1;" edge="1" parent="WIyWlLk6GJQsqaUBKTNV-1" source="IZOHKW2P9wZHOgx0dLO4-5" target="IZOHKW2P9wZHOgx0dLO4-7">
          <mxGeometry relative="1" as="geometry" />
        </mxCell>
        <mxCell id="IZOHKW2P9wZHOgx0dLO4-5" value="&lt;font face=&quot;Times New Roman&quot;&gt;&lt;b&gt;Halaman Home&lt;/b&gt;&lt;/font&gt;" style="rounded=0;whiteSpace=wrap;html=1;" vertex="1" parent="WIyWlLk6GJQsqaUBKTNV-1">
          <mxGeometry x="360" y="320" width="120" height="40" as="geometry" />
        </mxCell>
        <mxCell id="IZOHKW2P9wZHOgx0dLO4-11" style="edgeStyle=orthogonalEdgeStyle;rounded=0;orthogonalLoop=1;jettySize=auto;html=1;entryX=0;entryY=0.5;entryDx=0;entryDy=0;" edge="1" parent="WIyWlLk6GJQsqaUBKTNV-1" source="IZOHKW2P9wZHOgx0dLO4-7" target="IZOHKW2P9wZHOgx0dLO4-9">
          <mxGeometry relative="1" as="geometry" />
        </mxCell>
        <mxCell id="IZOHKW2P9wZHOgx0dLO4-7" value="&lt;font face=&quot;Times New Roman&quot;&gt;&lt;b&gt;Melakukan Monitorinh&lt;/b&gt;&lt;/font&gt;" style="shape=parallelogram;perimeter=parallelogramPerimeter;whiteSpace=wrap;html=1;fixedSize=1;rounded=0;" vertex="1" parent="WIyWlLk6GJQsqaUBKTNV-1">
          <mxGeometry x="345" y="410" width="150" height="50" as="geometry" />
        </mxCell>
        <mxCell id="IZOHKW2P9wZHOgx0dLO4-12" style="edgeStyle=orthogonalEdgeStyle;rounded=0;orthogonalLoop=1;jettySize=auto;html=1;exitX=0.5;exitY=0;exitDx=0;exitDy=0;entryX=1;entryY=0.5;entryDx=0;entryDy=0;" edge="1" parent="WIyWlLk6GJQsqaUBKTNV-1" source="IZOHKW2P9wZHOgx0dLO4-9" target="IZOHKW2P9wZHOgx0dLO4-5">
          <mxGeometry relative="1" as="geometry" />
        </mxCell>
        <mxCell id="IZOHKW2P9wZHOgx0dLO4-13" value="&lt;b&gt;&lt;font face=&quot;Times New Roman&quot;&gt;Tidak&lt;/font&gt;&lt;/b&gt;" style="edgeLabel;html=1;align=center;verticalAlign=middle;resizable=0;points=[];" vertex="1" connectable="0" parent="IZOHKW2P9wZHOgx0dLO4-12">
          <mxGeometry x="-0.5034" y="1" relative="1" as="geometry">
            <mxPoint as="offset" />
          </mxGeometry>
        </mxCell>
        <mxCell id="IZOHKW2P9wZHOgx0dLO4-15" style="edgeStyle=orthogonalEdgeStyle;rounded=0;orthogonalLoop=1;jettySize=auto;html=1;entryX=0.5;entryY=0;entryDx=0;entryDy=0;" edge="1" parent="WIyWlLk6GJQsqaUBKTNV-1" source="IZOHKW2P9wZHOgx0dLO4-9" target="IZOHKW2P9wZHOgx0dLO4-14">
          <mxGeometry relative="1" as="geometry">
            <Array as="points">
              <mxPoint x="598" y="530" />
              <mxPoint x="598" y="530" />
            </Array>
          </mxGeometry>
        </mxCell>
        <mxCell id="IZOHKW2P9wZHOgx0dLO4-23" value="&lt;font face=&quot;Times New Roman&quot;&gt;&lt;b&gt;Ya&lt;/b&gt;&lt;/font&gt;" style="edgeLabel;html=1;align=center;verticalAlign=middle;resizable=0;points=[];" vertex="1" connectable="0" parent="IZOHKW2P9wZHOgx0dLO4-15">
          <mxGeometry x="-0.1541" relative="1" as="geometry">
            <mxPoint as="offset" />
          </mxGeometry>
        </mxCell>
        <mxCell id="IZOHKW2P9wZHOgx0dLO4-9" value="&lt;b&gt;&lt;font face=&quot;Times New Roman&quot;&gt;Monitoring Berhasil&lt;/font&gt;&lt;/b&gt;" style="rhombus;whiteSpace=wrap;html=1;rounded=0;" vertex="1" parent="WIyWlLk6GJQsqaUBKTNV-1">
          <mxGeometry x="525" y="375" width="145" height="120" as="geometry" />
        </mxCell>
        <mxCell id="IZOHKW2P9wZHOgx0dLO4-17" style="edgeStyle=orthogonalEdgeStyle;rounded=0;orthogonalLoop=1;jettySize=auto;html=1;entryX=0.5;entryY=0;entryDx=0;entryDy=0;" edge="1" parent="WIyWlLk6GJQsqaUBKTNV-1" source="IZOHKW2P9wZHOgx0dLO4-14" target="IZOHKW2P9wZHOgx0dLO4-16">
          <mxGeometry relative="1" as="geometry" />
        </mxCell>
        <mxCell id="IZOHKW2P9wZHOgx0dLO4-14" value="&lt;font face=&quot;Times New Roman&quot;&gt;&lt;b&gt;Simpan Data &lt;br&gt;&lt;i&gt;SpO2&lt;/i&gt; dan &lt;i&gt;BPM&lt;/i&gt;&lt;/b&gt;&lt;/font&gt;" style="shape=parallelogram;perimeter=parallelogramPerimeter;whiteSpace=wrap;html=1;fixedSize=1;rounded=0;" vertex="1" parent="WIyWlLk6GJQsqaUBKTNV-1">
          <mxGeometry x="523.75" y="570" width="147.5" height="60" as="geometry" />
        </mxCell>
        <mxCell id="IZOHKW2P9wZHOgx0dLO4-19" style="edgeStyle=orthogonalEdgeStyle;rounded=0;orthogonalLoop=1;jettySize=auto;html=1;entryX=0.5;entryY=0;entryDx=0;entryDy=0;" edge="1" parent="WIyWlLk6GJQsqaUBKTNV-1" source="IZOHKW2P9wZHOgx0dLO4-16" target="IZOHKW2P9wZHOgx0dLO4-18">
          <mxGeometry relative="1" as="geometry" />
        </mxCell>
        <mxCell id="IZOHKW2P9wZHOgx0dLO4-16" value="&lt;font face=&quot;Times New Roman&quot;&gt;&lt;b&gt;Simpan Lokasi Monitoring&lt;/b&gt;&lt;/font&gt;" style="shape=parallelogram;perimeter=parallelogramPerimeter;whiteSpace=wrap;html=1;fixedSize=1;rounded=0;" vertex="1" parent="WIyWlLk6GJQsqaUBKTNV-1">
          <mxGeometry x="537.5" y="680" width="120" height="60" as="geometry" />
        </mxCell>
        <mxCell id="IZOHKW2P9wZHOgx0dLO4-22" style="edgeStyle=orthogonalEdgeStyle;rounded=0;orthogonalLoop=1;jettySize=auto;html=1;" edge="1" parent="WIyWlLk6GJQsqaUBKTNV-1" source="IZOHKW2P9wZHOgx0dLO4-18" target="IZOHKW2P9wZHOgx0dLO4-20">
          <mxGeometry relative="1" as="geometry" />
        </mxCell>
        <mxCell id="IZOHKW2P9wZHOgx0dLO4-18" value="&lt;font face=&quot;Times New Roman&quot;&gt;&lt;b&gt;Menampilkan Hasil Diagnosa&lt;/b&gt;&lt;/font&gt;" style="rounded=0;whiteSpace=wrap;html=1;" vertex="1" parent="WIyWlLk6GJQsqaUBKTNV-1">
          <mxGeometry x="537.5" y="790" width="120" height="50" as="geometry" />
        </mxCell>
        <mxCell id="IZOHKW2P9wZHOgx0dLO4-20" value="&lt;p&gt;&lt;font face=&quot;Times New Roman&quot;&gt;&lt;b&gt;SELESAI&lt;/b&gt;&lt;/font&gt;&lt;/p&gt;" style="rounded=1;whiteSpace=wrap;html=1;arcSize=50;" vertex="1" parent="WIyWlLk6GJQsqaUBKTNV-1">
          <mxGeometry x="537.5" y="900" width="120" height="30" as="geometry" />
        </mxCell>
      </root>
    </mxGraphModel>
  </diagram>
</mxfile>
